<svg width="19" height="15" viewBox="0 0 19 15" fill="none" xmlns="http://www.w3.org/2000/svg">
<path d="M18.0344 3.89192V12.1154C18.0344 12.8804 17.7381 13.6141 17.2107 14.1551C16.6832 14.6961 15.9678 15 15.2219 15H2.84692C2.101 15 1.38563 14.6961 0.858186 14.1551C0.33074 13.6141 0.0344238 12.8804 0.0344238 12.1154V3.89192L8.74867 9.15115C8.83525 9.20352 8.93392 9.23114 9.03442 9.23114C9.13493 9.23114 9.2336 9.20352 9.32017 9.15115L18.0344 3.89192ZM15.2219 3.57146e-08C15.914 -0.000111595 16.5818 0.261469 17.0975 0.7347C17.6133 1.20793 17.9409 1.85959 18.0175 2.565L9.03442 7.98462L0.0512989 2.565C0.127977 1.85959 0.455538 1.20793 0.971318 0.7347C1.4871 0.261469 2.15488 -0.000111595 2.84692 3.57146e-08H15.2219Z" fill="#FF574D"/>
</svg>
