<svg width="15" height="18" viewBox="0 0 15 18" fill="none" xmlns="http://www.w3.org/2000/svg">
<path d="M14.4173 4.46087C14.3879 4.38261 14.3366 4.25869 14.2633 4.08913C14.19 3.91956 14.1387 3.80869 14.1093 3.75652C13.4935 2.47826 12.5916 1.53261 11.4039 0.919565C10.2161 0.306522 8.97704 0 7.68663 0C6.01497 0 4.50461 0.48913 3.15555 1.46739C1.80649 2.44565 1.01465 3.82174 0.780029 5.59565V6.33913L0.82402 6.53478V6.80869C0.882675 7.22608 1.03664 7.70217 1.28593 8.23695C1.53521 8.77174 1.7625 9.20217 1.96779 9.52826C2.17308 9.85434 2.50301 10.35 2.95759 11.0152C3.41216 11.6804 3.71277 12.1174 3.85941 12.3261C4.7099 13.6043 6.01497 15.4956 7.77461 18C8.00923 17.6609 8.81573 16.4348 10.1941 14.3217C10.2528 14.2435 10.3628 14.087 10.5241 13.8522C10.6854 13.6174 10.7953 13.4348 10.854 13.3043C10.9126 13.2261 11.008 13.1152 11.1399 12.9717C11.2719 12.8283 11.3672 12.7174 11.4259 12.6391C11.6312 12.3 12.0784 11.6543 12.7676 10.7022C13.4568 9.75 13.9627 8.94782 14.2853 8.29565C14.6079 7.64348 14.7692 7.00435 14.7692 6.37826V5.51739C14.7692 5.23043 14.6519 4.87826 14.4173 4.46087ZM7.73062 8.33478C6.58685 8.33478 5.79501 7.83913 5.3551 6.84782C5.32578 6.71739 5.31111 6.52174 5.31111 6.26087V5.75217C5.31111 5.1 5.56039 4.59782 6.05896 4.24565C6.55753 3.89348 7.14407 3.71739 7.8186 3.71739C8.55179 3.71739 9.16033 3.93913 9.64423 4.38261C10.1281 4.82609 10.3701 5.37391 10.3701 6.02608C10.3701 6.67826 10.1135 7.22608 9.60024 7.66956C9.08701 8.11304 8.46381 8.33478 7.73062 8.33478Z" fill="#FF574D"/>
</svg>
