<svg width="19" height="18" viewBox="0 0 19 18" fill="none" xmlns="http://www.w3.org/2000/svg">
<path d="M18.0717 14.9676L15.5339 17.4851C15.1593 17.8693 14.6627 17.9994 14.1791 18C12.0406 17.9359 10.0191 16.8854 8.35941 15.8068C5.63508 13.8248 3.13539 11.3673 1.56654 8.39748C0.96483 7.15213 0.25881 5.56317 0.326265 4.17313C0.33228 3.65023 0.47319 3.13704 0.841455 2.79999L3.37924 0.263473C3.90622 -0.184772 4.41585 -0.0297921 4.75308 0.492328L6.79474 4.36386C7.00963 4.82251 6.88636 5.31394 6.56575 5.64168L5.63077 6.57618C5.57305 6.65524 5.5363 6.74524 5.53537 6.84319C5.8939 8.23102 6.98007 9.51018 7.93959 10.3905C8.89909 11.2708 9.93046 12.4635 11.2692 12.7458C11.4347 12.792 11.6374 12.8082 11.7558 12.6981L12.8435 11.592C13.2184 11.3078 13.7598 11.1689 14.16 11.4013H14.1791L17.8618 13.5754C18.4024 13.9143 18.4587 14.5692 18.0717 14.9676Z" fill="#FF574D"/>
</svg>
